{"title":"Takers.2010.R5.H264.Feel-Free","uid":6001691,"size":826298764,"categoryP":"video","categoryS":"movies","magnet":"?xt=urn:btih:d24e2d3584cfa99224e129d5c3e12eede9910b8c&amp;dn=Takers.2010.R5.H264.Feel-Free&amp;tr=udp%3A%2F%2Ftracker.openbittorrent.com%3A80&amp;tr=udp%3A%2F%2Fopen.demonii.com%3A1337&amp;tr=udp%3A%2F%2Ftracker.coppersurfer.tk%3A6969&amp;tr=udp%3A%2F%2Fexodus.desync.com%3A6969","seeders":1,"leechers":1,"uploader":"hiest","files":-1,"time":1291199908,"description":"Genre:Action | Crime | Thriller\nLanguage:English\nIMDb:http://www.imdb.com/title/tt1135084/\nSource:DvD5-R5/Audio.PPV Source\nSubtitles:Romana\n\nGeneral\nComplete name :Takers.2010.R5.H264.Feel-Free\nFormat : MPEG-4\nFormat profile : Base Media\nCodec ID : isom\nFile size : 787 MiB\nDuration : 1h 42mn\nOverall bit rate : 1 070 Kbps\nVideo #2\nCodec ID : avc1\nCodec ID/Info : Advanced Video Coding\nDuration : 1h 42mn\nBit rate mode : Variable\nBit rate : 904 Kbps\nWidth : 720 pixels\nHeight : 304 pixels\nDisplay aspect ratio : 2.35:1\nFrame rate mode : Constant\nFrame rate : 29.970 fps\nOriginal frame rate : 29.000 fps\nResolution : 24 bits\nColorimetry : 4:2:0\nScan type : Progressive\nBits/(Pixel*Frame) : 0.138\nStream size : 665 MiB (85%)\nAudio #1\nID : 1\nFormat : AAC\nFormat/Info : Advanced Audio Codec\nFormat version : Version 4\nFormat profile : LC\nFormat settings, SBR : No\nCodec ID : 40\nDuration : 1h 42mn\nBit rate mode : Constant\nBit rate : 160 Kbps\nChannel(s) : 2 channels\nChannel positions : L R\nSampling rate : 48.0 KHz\nResolution : 16 bits\nStream size : 117 MiB (15%)\n\n\nPlot\nA group of bank robbers find their $20 million plan interrupted by a hard-boiled detective\n\n\n\n================================== &lt;a href=&quot;\nhttp://thepiratebay.se/user/hiest&quot; rel=&quot;nofollow&quot; target=&quot;_NEW&quot;&gt;\nhttp://thepiratebay.se/user/hiest&lt;/a&gt;\n==================================","torrent":{"xt":"urn:btih:d24e2d3584cfa99224e129d5c3e12eede9910b8c","amp;dn":"Takers.2010.R5.H264.Feel-Free","amp;tr":["udp%3A%2F%2Ftracker.openbittorrent.com%3A80","udp%3A%2F%2Fopen.demonii.com%3A1337","udp%3A%2F%2Ftracker.coppersurfer.tk%3A6969","udp%3A%2F%2Fexodus.desync.com%3A6969"],"infoHash":"d24e2d3584cfa99224e129d5c3e12eede9910b8c","infoHashBuffer":{"type":"Buffer","data":[210,78,45,53,132,207,169,146,36,225,41,213,195,225,46,237,233,145,11,140]},"announce":[],"urlList":[]}}